<svg width="228" height="51" viewBox="0 0 228 51" fill="none" xmlns="http://www.w3.org/2000/svg">
<path d="M58.5859 14.0824V11.2464C58.5859 9.4374 59.1073 8.07152 60.1551 7.15398C61.203 6.23644 62.8139 5.77246 64.9931 5.77246H81.9675V10.6208H65.6708C65.0817 10.6208 64.649 10.7199 64.3623 10.9232C64.0755 11.1265 63.9348 11.3767 63.9348 11.6791L63.8566 13.3109V17.982L63.9348 19.5408C63.9348 19.9109 64.0703 20.2028 64.3466 20.4218C64.6229 20.6408 65.0608 20.7502 65.6656 20.7502H81.9675V25.5204H64.9931C62.8139 25.5204 61.203 25.0616 60.1551 24.1389C59.1073 23.2213 58.5859 21.8607 58.5859 20.0725V14.0929V14.0824Z" fill="white"/>
<path d="M84.1328 10.7924C84.1328 9.98953 84.2267 9.32222 84.4091 8.79568C84.5916 8.26913 84.9357 7.7791 85.4361 7.32554C85.8688 6.89284 86.3537 6.55396 86.8906 6.31937C87.4276 6.08477 88.1001 5.91795 88.9134 5.81889C89.7267 5.71463 90.7016 5.65729 91.838 5.63122C92.9798 5.60516 94.7366 5.59473 97.1139 5.59473C99.4912 5.59473 101.248 5.61037 102.39 5.63122C103.526 5.65729 104.496 5.71984 105.288 5.81889C106.086 5.91795 106.743 6.08477 107.275 6.31937C107.806 6.55396 108.286 6.88763 108.719 7.32554C109.219 7.7791 109.563 8.26392 109.746 8.79568C109.928 9.32743 110.022 9.98953 110.022 10.7924V20.4109C110.022 21.2137 109.928 21.8915 109.746 22.4493C109.563 23.0019 109.219 23.5024 108.719 23.9559C108.286 24.373 107.791 24.6962 107.249 24.9204C106.706 25.1498 106.029 25.3166 105.215 25.4209C104.402 25.5303 103.401 25.6033 102.212 25.6346C101.024 25.6711 99.2983 25.6867 97.0357 25.6867C94.7731 25.6867 93.058 25.6711 91.8902 25.6346C90.7172 25.6033 89.7215 25.5303 88.8978 25.4209C88.0793 25.3114 87.4068 25.1446 86.8906 24.9204C86.3693 24.6962 85.8845 24.373 85.4361 23.9559C84.9357 23.5024 84.5916 23.0019 84.4091 22.4493C84.2267 21.8967 84.1328 21.2189 84.1328 20.4109V10.7924ZM89.685 19.6341C89.685 20.0512 89.8101 20.3379 90.0603 20.4995C90.3106 20.6611 90.7902 20.7393 91.494 20.7393H102.671C103.323 20.7393 103.808 20.635 104.115 20.4265C104.423 20.218 104.579 19.9521 104.579 19.6341V11.6473C104.579 11.1781 104.449 10.8601 104.188 10.6933C103.928 10.5265 103.448 10.4431 102.744 10.4431H91.494C90.8423 10.4431 90.3783 10.5526 90.0968 10.7715C89.8205 10.9905 89.685 11.2824 89.685 11.6526V19.6393V19.6341Z" fill="white"/>
<path d="M112.689 5.7666H130.096C131.034 5.7666 131.863 5.80832 132.583 5.89173C133.302 5.97514 133.99 6.17846 134.642 6.5069C135.294 6.83012 135.825 7.34624 136.237 8.0396C136.649 8.73297 136.852 9.6505 136.852 10.787C136.852 11.7932 136.712 12.6064 136.425 13.2373C136.138 13.8628 135.805 14.332 135.419 14.6448C135.033 14.9576 134.673 15.1557 134.34 15.2496C134.006 15.3434 133.745 15.3903 133.563 15.3903V15.4633C133.917 15.4633 134.298 15.5102 134.72 15.6041C135.137 15.6979 135.565 15.8908 135.997 16.1828C136.43 16.4747 136.8 16.9335 137.103 17.5486C137.405 18.169 137.556 18.9719 137.556 19.9572C137.556 21.1979 137.374 22.1885 137.014 22.934C136.654 23.6795 136.143 24.2373 135.481 24.6022C134.819 24.9724 134.063 25.2122 133.219 25.3321C132.374 25.452 131.332 25.5093 130.091 25.5093H112.684V5.7666H112.689ZM118.569 13.5553H129.241C129.695 13.5553 130.08 13.3989 130.398 13.0913C130.716 12.7837 130.878 12.3614 130.878 11.8244C130.878 11.3552 130.727 10.9643 130.424 10.6567C130.122 10.3491 129.752 10.1927 129.319 10.1927H118.569V13.5605V13.5553ZM118.668 20.9112H129.846C130.331 20.9112 130.727 20.7757 131.029 20.4994C131.332 20.2231 131.483 19.7851 131.483 19.1804C131.483 18.6956 131.332 18.2994 131.029 17.997C130.727 17.6946 130.336 17.5434 129.846 17.5434H118.668V20.9112Z" fill="white"/>
<path d="M153.953 25.5093H147.223L139.012 5.7666H145.289L150.361 18.878H150.46L154.933 5.7666H161.564L165.985 18.878L171.162 5.7666H177.439L169.228 25.5093H162.524L158.254 11.6941L153.958 25.5093H153.953Z" fill="white"/>
<path d="M200.42 20.9171V25.5152H178.77V5.77246H200.42V10.3445H184.921V13.6602H199.466V17.6535H184.921V20.9171H200.42Z" fill="white"/>
<path d="M202.576 5.7666H219.983C220.921 5.7666 221.75 5.80832 222.469 5.89173C223.189 5.97514 223.877 6.17846 224.529 6.5069C225.18 6.83012 225.712 7.34624 226.124 8.0396C226.536 8.73297 226.739 9.6505 226.739 10.787C226.739 11.7932 226.598 12.6064 226.312 13.2373C226.025 13.8628 225.691 14.332 225.305 14.6448C224.92 14.9576 224.56 15.1557 224.226 15.2496C223.893 15.3434 223.632 15.3903 223.45 15.3903V15.4633C223.804 15.4633 224.185 15.5102 224.607 15.6041C225.024 15.6979 225.451 15.8908 225.884 16.1828C226.317 16.4747 226.687 16.9335 226.989 17.5486C227.292 18.169 227.443 18.9719 227.443 19.9572C227.443 21.1979 227.26 22.1885 226.901 22.934C226.541 23.6795 226.03 24.2373 225.368 24.6022C224.706 24.9724 223.95 25.2122 223.105 25.3321C222.261 25.452 221.218 25.5093 219.977 25.5093H202.57V5.7666H202.576ZM208.456 13.5553H219.128C219.581 13.5553 219.967 13.3989 220.285 13.0913C220.603 12.7837 220.765 12.3614 220.765 11.8244C220.765 11.3552 220.613 10.9643 220.311 10.6567C220.009 10.3491 219.639 10.1927 219.206 10.1927H208.456V13.5605V13.5553ZM208.555 20.9112H219.732C220.217 20.9112 220.614 20.7757 220.916 20.4994C221.218 20.2231 221.369 19.7851 221.369 19.1804C221.369 18.6956 221.218 18.2994 220.916 17.997C220.614 17.6946 220.222 17.5434 219.732 17.5434H208.555V20.9112Z" fill="white"/>
<path d="M73.0632 35.7345H62.7461C62.376 35.7345 62.1101 35.7918 61.9433 35.9117C61.7765 36.0316 61.6931 36.1672 61.6931 36.334V40.9165C61.6931 41.1876 61.766 41.3648 61.9068 41.4482C62.0476 41.5316 62.3291 41.5733 62.7461 41.5733H68.9343C69.3149 41.5733 69.586 41.516 69.7528 41.3909C69.9196 41.2658 70.003 41.1094 70.003 40.9165V39.6027H65.6708V37.4444H73.1102V41.37C73.1102 41.8496 73.058 42.2458 72.959 42.5586C72.8547 42.8767 72.6722 43.1634 72.4116 43.4241C72.1613 43.6691 71.8798 43.8568 71.5722 43.9871C71.2647 44.1174 70.8789 44.2165 70.4201 44.279C69.9613 44.3416 69.3931 44.3833 68.7258 44.4042C68.0585 44.425 67.094 44.4354 65.8324 44.4354C64.5708 44.4354 63.6063 44.425 62.9442 44.4042C62.2822 44.3833 61.7243 44.3416 61.2656 44.279C60.812 44.2165 60.4367 44.1174 60.1447 43.9871C59.8528 43.8568 59.5869 43.6691 59.3419 43.4241C59.0499 43.1738 58.8518 42.8871 58.7476 42.5691C58.6381 42.2511 58.5859 41.8496 58.5859 41.3648V36.0837C58.5859 35.0411 58.8987 34.2539 59.5191 33.7169C60.1447 33.1799 61.0935 32.9141 62.3656 32.9141H73.0737V35.7292L73.0632 35.7345Z" fill="white"/>
<path d="M85.441 42.4332L84.3775 44.3882H80.4102L86.6974 32.9189H91.2799L97.5097 44.3882H93.5424L92.4893 42.4332H85.441ZM86.7391 39.9673H91.1756L88.9547 35.8384L86.7339 39.9673H86.7391Z" fill="white"/>
<path d="M115.412 44.3882H113.003L108.77 36.0417H108.728V44.3882H105.402V32.9189H110.991L114.155 39.6024L114.197 39.6597L117.377 32.9189H122.95V44.3882H119.64V36.0417H119.582L115.407 44.3882H115.412Z" fill="white"/>
<path d="M144.392 41.719V44.3882H131.812V32.9189H144.392V35.5777H135.389V37.5014H143.84V39.8213H135.389V41.719H144.392Z" fill="white"/>
<path d="M166.648 40.8741C166.648 42.1096 166.376 43.0063 165.824 43.5589C165.271 44.1115 164.39 44.3878 163.176 44.3878H152.811V41.9063H161.653C161.857 41.9063 162.044 41.8959 162.216 41.875C162.383 41.8542 162.545 41.8125 162.691 41.7499C162.837 41.6874 162.957 41.5935 163.04 41.4632C163.129 41.3381 163.17 41.1712 163.17 40.9679C163.17 40.7333 163.108 40.5509 162.988 40.4101C162.868 40.2693 162.706 40.1651 162.513 40.1025C162.321 40.04 162.117 39.9983 161.909 39.9878C161.7 39.9722 161.445 39.967 161.142 39.967C160.955 39.9565 160.439 39.9357 159.578 39.9096C158.233 39.8627 157.394 39.8262 157.055 39.8158C156.716 39.8002 156.393 39.7845 156.091 39.7741C155.788 39.7584 155.533 39.7428 155.319 39.7219C154.24 39.6646 153.468 39.3101 152.999 38.6584C152.671 38.1736 152.504 37.4437 152.504 36.4845C152.504 35.2959 152.733 34.4044 153.192 33.8153C153.646 33.221 154.407 32.9238 155.47 32.9238H166.225V35.4053H157.384C157.191 35.4053 157.013 35.4158 156.857 35.4366C156.701 35.4575 156.555 35.494 156.419 35.5617C156.284 35.6243 156.174 35.7181 156.091 35.8485C156.007 35.9788 155.966 36.1404 155.966 36.3437C155.966 36.7139 156.096 36.9537 156.362 37.0736C156.628 37.1935 156.987 37.2508 157.457 37.2508H158.056C158.233 37.2613 158.739 37.2821 159.589 37.3082C160.757 37.3499 161.565 37.376 162.018 37.3968C162.472 37.4177 162.852 37.4333 163.165 37.449C163.478 37.4646 163.733 37.4802 163.937 37.5011C165.005 37.5584 165.756 37.9494 166.184 38.6689C166.496 39.2632 166.648 39.9983 166.648 40.8845V40.8741Z" fill="white"/>
<path d="M31.4608 39.5765C33.7614 38.2458 35.8499 36.9981 37.9828 35.8276C38.7618 35.4014 39.0878 34.9231 39.08 33.9917C39.0318 28.243 39.0588 22.4924 39.055 16.7437C39.055 15.0949 37.6241 14.2811 36.2009 15.1026C30.9864 18.1168 25.7719 21.1309 20.5574 24.147C19.057 25.0148 19.0763 26.33 20.6036 27.2171C22.7461 28.4648 24.8906 29.7106 27.0311 30.9621C27.0871 30.9949 27.1102 31.0836 27.2375 31.2938C25.6465 32.2098 24.071 33.1451 22.4549 34.011C22.2332 34.1306 21.7781 33.957 21.4984 33.7989C19.3386 32.5801 17.1787 31.3613 15.0652 30.0635C14.6853 29.8301 14.3208 29.2458 14.3034 28.81C14.2224 26.7253 14.2224 24.6349 14.2996 22.5522C14.315 22.1144 14.6698 21.5108 15.0478 21.2891C22.185 17.1159 29.3414 12.9794 36.5191 8.87761C36.8643 8.67899 37.5161 8.69827 37.8748 8.89111C39.8128 9.93826 41.7259 11.0394 43.5945 12.2061C43.9706 12.4414 44.3312 13.045 44.3331 13.4808C44.3755 21.4356 44.3736 29.3904 44.3293 37.3433C44.3273 37.7772 43.9706 38.3789 43.5984 38.6103C41.5581 39.8735 39.4696 41.0633 37.3695 42.2262C37.061 42.3978 36.5152 42.4402 36.2163 42.2821C34.689 41.4741 33.206 40.5812 31.4608 39.5765Z" fill="white"/>
<path d="M27.4543 2.83628C24.9049 4.31346 22.5984 5.65373 20.2882 6.98821C15.6156 9.68803 10.9507 12.3975 6.26068 15.0665C5.56645 15.4618 5.26175 15.8841 5.26754 16.7172C5.30611 22.4697 5.30804 28.2223 5.26754 33.9729C5.26175 34.8908 5.57995 35.3652 6.36482 35.8126C12.8637 39.521 19.3374 43.2776 25.817 47.0227C26.2856 47.2926 26.7427 47.58 27.4157 47.9869C25.6608 49.0012 24.0891 49.9404 22.4789 50.8063C22.2533 50.9277 21.7924 50.7696 21.5147 50.6096C14.5472 46.608 7.58553 42.5969 0.645064 38.5472C0.324942 38.3601 0.0279624 37.8221 0.026034 37.446C-0.00867799 29.4083 -0.00867799 21.3725 0.026034 13.3347C0.026034 12.9645 0.344227 12.4399 0.668205 12.2509C7.61059 8.20313 14.5703 4.18618 21.5378 0.186596C21.8271 0.0207505 22.3342 -0.0718147 22.5984 0.0689615C24.1566 0.898191 25.6724 1.80842 27.4543 2.83628Z" fill="white"/>
</svg>
